<?xml version="1.0" encoding="utf-8"?>
<!-- Generator: Adobe Illustrator 19.0.0, SVG Export Plug-In . SVG Version: 6.00 Build 0)  -->
<svg version="1.1" id="original" xmlns="http://www.w3.org/2000/svg" xmlns:xlink="http://www.w3.org/1999/xlink" x="0px" y="0px"
	 viewBox="594 185.1 1800 422.9" style="enable-background:new 594 185.1 1800 422.9;" xml:space="preserve">
<style type="text/css">
	.st0{clip-path:url(#SVGID_2_);fill:#2DB34A;}
	.st1{fill:#164D90;}
	.st2{fill:#2DB34A;}
</style>
<g>
	<g>
		<defs>
			<rect id="SVGID_1_" x="648.9" y="265.4" width="1698.2" height="262.4"/>
		</defs>
		<clipPath id="SVGID_2_">
			<use xlink:href="#SVGID_1_"  style="overflow:visible;"/>
		</clipPath>
		<path class="st0" d="M702.3,504.3H797l30.1-30.5v-55.4l-30.9-31.2h-73.7l-18.2-18.4v-42.1l18.2-18.4H776l18.7,19V342h32.5v-21.9
			l-30.9-31.2h-93.7l-30.5,30.5v56.9l30.9,30.9h73l18.7,19v40l-18.3,18.6h-53.8l-18.2-18.2v-14h-32.2v21.3L702.3,504.3L702.3,504.3z
			 M801,513.7H698.3l-35.6-36v-34.5h51v19.5l12.7,12.7h46l12.9-13.1v-32.3L772,416.5h-72.9l-36.4-36.4v-64.6l36-36h101.5l36.4,36.8
			v35.2h-51.3v-20.1L772,317.8h-45.6l-12.8,12.8v34.3l12.8,12.8h73.7l36.4,36.8v63.1L801,513.7L801,513.7z M732.7,364.1h38.5v-27
			l-5.2-5.2h-33.6l-4.9,5.2v21.8L732.7,364.1L732.7,364.1z M733.3,461.6h32.4l5.5-5.3v-20.9l-5.2-4.9h-38.6V456L733.3,461.6
			L733.3,461.6z M695.8,518.3h107.4l37.7-37.7v-69.5l-37.7-37.7h-74.4L718,362.7v-29.5l10.3-10.8h41.5l10.7,10.7v22.5h60.3v-43.2
			l-37.7-37.7H695.8L658,312.5v71l37.7,37.7h74l10.8,10.3v28.9L769.4,471h-39.9L718,460v-21.1h-60v41.8L695.8,518.3L695.8,518.3z
			 M807,527.7H691.9l-43.2-43.2v-55.1h42.1l-42.1-42.1v-78.7l43.2-43.2H807l43.2,43.2v56.5h-42.2l42.2,42.2v77.2L807,527.7
			L807,527.7z"/>
	</g>
	<path class="st1" d="M831.9,346.7v-28.5l-33.6-34h-97.6l-33.2,33.2v60.8l33.6,33.6h73l16,16.2v36.2L774.4,480h-49.9L709,464.5
		v-16.7h-41.6v27.9l32.9,33.2H799l32.9-33.2v-59.3l-33.6-34h-73.7L709,366.9v-38.2l15.5-15.6H774l16,16.2v17.4H831.9L831.9,346.7z
		 M831.9,346.7v-28.5l-33.6-34h-97.6l-33.2,33.2v60.8l33.6,33.6h73l16,16.2v36.2L774.4,480h-49.9L709,464.5v-16.7h-41.6v27.9
		l32.9,33.2H799l32.9-33.2v-59.3l-33.6-34h-73.7L709,366.9v-38.2l15.5-15.6H774l16,16.2v17.4H831.9L831.9,346.7z M831.9,346.7v-28.5
		l-33.6-34h-97.6l-33.2,33.2v60.8l33.6,33.6h73l16,16.2v36.2L774.4,480h-49.9L709,464.5v-16.7h-41.6v27.9l32.9,33.2H799l32.9-33.2
		v-59.3l-33.6-34h-73.7L709,366.9v-38.2l15.5-15.6H774l16,16.2v17.4H831.9L831.9,346.7z"/>
	<path class="st2" d="M950.1,365.5h28.4l5.2-5.2v-23.2l-5.2-5.2h-28.4V365.5L950.1,365.5z M982.4,374.9h-41.7v-52.4h41.7l10.7,10.7
		v30.9L982.4,374.9L982.4,374.9z M936.3,379.6h47.9l13.2-13.1v-35.8l-12.8-12.8h-48.3V379.6L936.3,379.6z M988.1,388.9h-61.2v-80.6
		h61.6l18.3,18.3v43.6L988.1,388.9L988.1,388.9z M879.6,504.3h62.5v-19.5h-15.2v-75.9h81.5l30.5-30.9v-58.7l-30.5-30.5H879.6v19.5
		h14.8v176.4h-14.8V504.3L879.6,504.3z M951.5,513.7h-81.3v-38.3H885V317.8h-14.8v-38.3h142.1l36,36v66.4l-36,36.4h-76v57.1h15.2
		V513.7L951.5,513.7z M865.5,518.3h90.3V471h-15.1v-48.5h74.6l37.8-37.7v-72.4l-37.8-37.7H865.5v47.7h15.2V471h-15.2V518.3
		L865.5,518.3z M965.2,527.7H856.1v-66.1h15.2V331.8h-15.2v-66.5h163.1l43.3,43.2v80.2l-43.3,43.2h-69.1v29.7h15.1V527.7
		L965.2,527.7z"/>
	<path class="st1" d="M1002.1,368.4l-16,15.9h-54.6v-71.2h54.9l15.6,15.6V368.4L1002.1,368.4z M1010.4,284.1H874.9v28.9h14.8v167
		h-14.8V509h71.9V480h-15.2v-66.5h78.8l33.2-33.6v-62.5L1010.4,284.1L1010.4,284.1z M1002.1,368.4l-16,15.9h-54.6v-71.2h54.9
		l15.6,15.6V368.4L1002.1,368.4z M1010.4,284.1H874.9v28.9h14.8v167h-14.8V509h71.9V480h-15.2v-66.5h78.8l33.2-33.6v-62.5
		L1010.4,284.1L1010.4,284.1z M1002.1,368.4l-16,15.9h-54.6v-71.2h54.9l15.6,15.6V368.4L1002.1,368.4z M1010.4,284.1H874.9v28.9
		h14.8v167h-14.8V509h71.9V480h-15.2v-66.5h78.8l33.2-33.6v-62.5L1010.4,284.1L1010.4,284.1z"/>
	<path class="st2" d="M1094.3,504.3h148.5v-29.6h-19.9v10.1h-81.3v-78.4h47.3v10.1h19.5v-39.8h-19.5v10.1h-47.3v-78.4h81.3v10.1
		h19.9v-29.6h-148.5v19.5h14.8v176.4h-14.8V504.3L1094.3,504.3z M1252.2,513.6h-167.3v-38.3h14.8V317.8h-14.8v-38.3h167.3v48.4
		h-38.7v-10.1H1151v59.6h28.6v-10.1h38.3v58.5h-38.3v-10.1H1151v59.6h62.5v-10.1h38.7V513.6L1252.2,513.6z M1080.2,518.3h176.4
		v-57.8h-47.4V471h-53.8v-50.6h19.5v9.8h47.7v-67.2h-47.7v9.8h-19.5v-50.2h53.8v10.1h47.4v-57.8h-176.4v47.7h15.2V471h-15.2V518.3
		L1080.2,518.3z M1265.9,527.7h-195.2v-66.1h15.2V331.9h-15.2v-66.5h195.2V342h-66.1v-10.1h-35.1v31.4h0.7v-9.8h66.5v86h-66.5v-9.8
		h-0.7v31.8h35.1v-10.5h66.1V527.7L1265.9,527.7z"/>
	<path class="st1" d="M1247.5,323.2v-39.1h-158v28.9h14.8v167h-14.8V509h158v-39.1h-29.3V480h-71.9v-69h37.9v10.1h28.9v-49.2h-28.9
		v10.1h-37.9v-69h71.9v10.1H1247.5L1247.5,323.2z M1247.5,323.2v-39.1h-158v28.9h14.8v167h-14.8V509h158v-39.1h-29.3V480h-71.9v-69
		h37.9v10.1h28.9v-49.2h-28.9v10.1h-37.9v-69h71.9v10.1H1247.5L1247.5,323.2z M1247.5,323.2v-39.1h-158v28.9h14.8v167h-14.8V509h158
		v-39.1h-29.3V480h-71.9v-69h37.9v10.1h28.9v-49.2h-28.9v10.1h-37.9v-69h71.9v10.1H1247.5L1247.5,323.2z M1247.5,323.2v-39.1h-158
		v28.9h14.8v167h-14.8V509h158v-39.1h-29.3V480h-71.9v-69h37.9v10.1h28.9v-49.2h-28.9v10.1h-37.9v-69h71.9v10.1H1247.5L1247.5,323.2
		z M1247.5,323.2v-39.1h-158v28.9h14.8v167h-14.8V509h158v-39.1h-29.3V480h-71.9v-69h37.9v10.1h28.9v-49.2h-28.9v10.1h-37.9v-69
		h71.9v10.1H1247.5L1247.5,323.2z M1247.5,323.2v-39.1h-158v28.9h14.8v167h-14.8V509h158v-39.1h-29.3V480h-71.9v-69h37.9v10.1h28.9
		v-49.2h-28.9v10.1h-37.9v-69h71.9v10.1H1247.5L1247.5,323.2z M1247.5,323.2v-39.1h-158v28.9h14.8v167h-14.8V509h158v-39.1h-29.3
		V480h-71.9v-69h37.9v10.1h28.9v-49.2h-28.9v10.1h-37.9v-69h71.9v10.1H1247.5L1247.5,323.2z"/>
	<path class="st2" d="M1403,410.6h-29.8l14.9-43.4L1403,410.6L1403,410.6z M1366.8,415h41.9l-20.7-62.9L1366.8,415L1366.8,415z
		 M1421.7,424.4h-68l34.4-101.9L1421.7,424.4L1421.7,424.4z M1426.4,504.3h59.6v-19.5h-9.5l-58.4-176.4h19.5v-19.5h-97.2v19.5h17.7
		l-58.4,176.4h-9.5v19.5h59.3v-19.5h-15.5l16.1-48.8h75.8l16.1,48.8h-15.5V504.3L1426.4,504.3z M1495.4,513.6H1417v-38.3h11.9
		l-9.9-30h-62.2l-9.9,30h11.9v38.3h-78.1v-38.3h12.1l52.2-157.6H1331v-38.3h116v38.3h-15.9l52.2,157.6h12.1V513.6L1495.4,513.6z
		 M1412.3,518.3h87.5V471h-13.5l-49.4-148.5h14.5v-47.7h-125.1v47.7h13L1289.9,471H1276v47.3h87.5V471h-10.7l7.8-21.3h55.1l7.1,21.3
		h-10.5V518.3L1412.3,518.3z M1509.1,527.7h-106.2v-66.1h6.9l-0.8-2.5h-41.8l-0.9,2.5h6.7v66.1h-106.2v-66.1h16.5l43.1-129.7h-9.4
		v-66.5h143.8v66.5h-10.8l43.1,129.7h16.1V527.7L1509.1,527.7z"/>
	<path class="st1" d="M1360.3,419.7l27.8-82.4l27.1,82.4H1360.3L1360.3,419.7z M1479.9,480l-55.3-167h17.7v-28.9h-106.6v28.9h15.9
		l-55.3,167h-10.8V509h68.6V480h-13.7l13.1-39.3h69l13,39.3h-13.7V509h69V480H1479.9L1479.9,480z M1360.3,419.7l27.8-82.4l27.1,82.4
		H1360.3L1360.3,419.7z M1479.9,480l-55.3-167h17.7v-28.9h-106.6v28.9h15.9l-55.3,167h-10.8V509h68.6V480h-13.7l13.1-39.3h69
		l13,39.3h-13.7V509h69V480H1479.9L1479.9,480z M1360.3,419.7l27.8-82.4l27.1,82.4H1360.3L1360.3,419.7z M1479.9,480l-55.3-167h17.7
		v-28.9h-106.6v28.9h15.9l-55.3,167h-10.8V509h68.6V480h-13.7l13.1-39.3h69l13,39.3h-13.7V509h69V480H1479.9L1479.9,480z
		 M1360.3,419.7l27.8-82.4l27.1,82.4H1360.3L1360.3,419.7z M1479.9,480l-55.3-167h17.7v-28.9h-106.6v28.9h15.9l-55.3,167h-10.8V509
		h68.6V480h-13.7l13.1-39.3h69l13,39.3h-13.7V509h69V480H1479.9L1479.9,480z M1360.3,419.7l27.8-82.4l27.1,82.4H1360.3L1360.3,419.7
		z M1479.9,480l-55.3-167h17.7v-28.9h-106.6v28.9h15.9l-55.3,167h-10.8V509h68.6V480h-13.7l13.1-39.3h69l13,39.3h-13.7V509h69V480
		H1479.9L1479.9,480z M1360.3,419.7l27.8-82.4l27.1,82.4H1360.3L1360.3,419.7z M1479.9,480l-55.3-167h17.7v-28.9h-106.6v28.9h15.9
		l-55.3,167h-10.8V509h68.6V480h-13.7l13.1-39.3h69l13,39.3h-13.7V509h69V480H1479.9L1479.9,480z M1360.3,419.7l27.8-82.4l27.1,82.4
		H1360.3L1360.3,419.7z M1479.9,480l-55.3-167h17.7v-28.9h-106.6v28.9h15.9l-55.3,167h-10.8V509h68.6V480h-13.7l13.1-39.3h69
		l13,39.3h-13.7V509h69V480H1479.9L1479.9,480z"/>
	<path class="st2" d="M1650.1,504.3h82.8v-19.5h-12.4l-88.2-88.2l88.2-88.2h12.4v-19.5h-82.8v19.5h33.4l-99.9,99.9v-99.9h15.2v-19.5
		h-62.5v19.5h14.8v176.4h-14.8v19.5h62.9v-19.5h-15.5v-38.8l30.7-31.1l69.5,69.9h-33.7V504.3L1650.1,504.3z M1742.3,513.6h-101.6
		v-38.3h20.5l-46.9-47.2l-21.3,21.6v25.5h15.5v38.3h-81.7v-38.3h14.8V317.8h-14.8v-38.3h81.3v38.3H1593v67.8l67.8-67.8h-20.1v-38.3
		h101.6v38.3h-17.9l-78.8,78.8l78.8,78.8h17.9V513.6L1742.3,513.6z M1636.4,518.3H1747V471h-16.4l-75.2-75.2l73.4-73.4h18.2v-47.7
		h-110.6v47.7h12.8l-51.8,51.8v-51.8h15.2v-47.7h-90.3v47.7h15.2V471h-15.2v47.3h90.7V471h-15.2v-19.7l16.3-16.3l35.9,35.9h-13.5
		V518.3L1636.4,518.3z M1756.4,527.7H1627l0.2-66.1l-13.2-13.2l-6.9,6.9v6.4h15.2v66.1h-109.5v-66.1h15.2V331.9h-15.2v-66.5h109.1
		v66.5h-15.2v19.7l20.2-20.2v-66h129.4v66.5h-23.7l-64,64l65.8,65.8h21.9V527.7L1756.4,527.7z"/>
	<path class="st1" d="M1737.5,313.1v-28.9h-92.1v28.9h26.8l-83.9,83.9v-83.9h15.2v-28.9h-71.9v28.9h14.8v167h-14.8V509h72.3V480
		h-15.6v-32.2l26-26.3l58.2,58.5h-27.1V509h92.1V480h-15.1l-83.5-83.5l83.5-83.5H1737.5L1737.5,313.1z M1737.5,313.1v-28.9h-92.1
		v28.9h26.8l-83.9,83.9v-83.9h15.2v-28.9h-71.9v28.9h14.8v167h-14.8V509h72.3V480h-15.6v-32.2l26-26.3l58.2,58.5h-27.1V509h92.1V480
		h-15.1l-83.5-83.5l83.5-83.5H1737.5L1737.5,313.1z M1737.5,313.1v-28.9h-92.1v28.9h26.8l-83.9,83.9v-83.9h15.2v-28.9h-71.9v28.9
		h14.8v167h-14.8V509h72.3V480h-15.6v-32.2l26-26.3l58.2,58.5h-27.1V509h92.1V480h-15.1l-83.5-83.5l83.5-83.5H1737.5L1737.5,313.1z
		 M1737.5,313.1v-28.9h-92.1v28.9h26.8l-83.9,83.9v-83.9h15.2v-28.9h-71.9v28.9h14.8v167h-14.8V509h72.3V480h-15.6v-32.2l26-26.3
		l58.2,58.5h-27.1V509h92.1V480h-15.1l-83.5-83.5l83.5-83.5H1737.5L1737.5,313.1z M1737.5,313.1v-28.9h-92.1v28.9h26.8l-83.9,83.9
		v-83.9h15.2v-28.9h-71.9v28.9h14.8v167h-14.8V509h72.3V480h-15.6v-32.2l26-26.3l58.2,58.5h-27.1V509h92.1V480h-15.1l-83.5-83.5
		l83.5-83.5H1737.5L1737.5,313.1z M1737.5,313.1v-28.9h-92.1v28.9h26.8l-83.9,83.9v-83.9h15.2v-28.9h-71.9v28.9h14.8v167h-14.8V509
		h72.3V480h-15.6v-32.2l26-26.3l58.2,58.5h-27.1V509h92.1V480h-15.1l-83.5-83.5l83.5-83.5H1737.5L1737.5,313.1z M1737.5,313.1v-28.9
		h-92.1v28.9h26.8l-83.9,83.9v-83.9h15.2v-28.9h-71.9v28.9h14.8v167h-14.8V509h72.3V480h-15.6v-32.2l26-26.3l58.2,58.5h-27.1V509
		h92.1V480h-15.1l-83.5-83.5l83.5-83.5H1737.5L1737.5,313.1z"/>
	<path class="st2" d="M1790.1,504.3h62.5v-19.5h-15.2V308.4h15.2v-19.5h-62.5v19.5h14.8v176.4h-14.8V504.3L1790.1,504.3z
		 M1862.1,513.6h-81.3v-38.3h14.8V317.8h-14.8v-38.3h81.3v38.3h-15.2v157.6h15.2V513.6L1862.1,513.6z M1776,518.3h90.4V471h-15.2
		V322.5h15.2v-47.7H1776v47.7h15.2V471H1776V518.3L1776,518.3z M1875.8,527.7h-109.1v-66.1h15.2V331.9h-15.2v-66.5h109.1v66.5h-15.2
		v129.7h15.2V527.7L1875.8,527.7z"/>
	<path class="st1" d="M1857.3,313.1v-28.9h-71.9v28.9h14.8v167h-14.8V509h71.9V480h-15.1v-167H1857.3L1857.3,313.1z M1857.3,313.1
		v-28.9h-71.9v28.9h14.8v167h-14.8V509h71.9V480h-15.1v-167H1857.3L1857.3,313.1z M1857.3,313.1v-28.9h-71.9v28.9h14.8v167h-14.8
		V509h71.9V480h-15.1v-167H1857.3L1857.3,313.1z M1857.3,313.1v-28.9h-71.9v28.9h14.8v167h-14.8V509h71.9V480h-15.1v-167H1857.3
		L1857.3,313.1z M1857.3,313.1v-28.9h-71.9v28.9h14.8v167h-14.8V509h71.9V480h-15.1v-167H1857.3L1857.3,313.1z M1857.3,313.1v-28.9
		h-71.9v28.9h14.8v167h-14.8V509h71.9V480h-15.1v-167H1857.3L1857.3,313.1z M1857.3,313.1v-28.9h-71.9v28.9h14.8v167h-14.8V509h71.9
		V480h-15.1v-167H1857.3L1857.3,313.1z"/>
	<path class="st2" d="M2056.3,504.3h53v-19.5h-15.5V308.4h15.5v-19.5h-62.9v19.5h15.5v148.1l-101-167.6h-50.8v19.5h14.8v176.4h-14.8
		v19.5h62.5v-19.5h-15.2V339.5L2056.3,504.3L2056.3,504.3z M2118.7,513.6h-67.7l-84.1-140.2v101.9h15.2v38.3h-81.3v-38.3h14.8V317.8
		h-14.8v-38.3h65.5l86.3,143.2V317.8H2037v-38.3h81.7v38.3h-15.5v157.6h15.5V513.6L2118.7,513.6z M2046.9,518.3h76.1V471h-15.2
		V322.5h15.2v-47.7h-90.4v47.7h15.2V403l-77.1-128.2H1896v47.7h15.2V471H1896v47.3h90.4V471h-15.2v-77.9L2046.9,518.3L2046.9,518.3z
		 M2132.4,527.7h-90.8l-61-101v34.8h15.2v66.1h-109.1v-66.1h15.2V331.9h-15.2v-66.5h89.4l62.4,103.8v-37.3h-15.2v-66.5h109.1v66.5
		h-15.2v129.7h15.2V527.7L2132.4,527.7z"/>
	<path class="st1" d="M2114,313.1v-28.9h-72.3v28.9h15.5v126.5l-93.5-155.4h-58.2v28.9h14.8v167h-14.8V509h71.9V480h-15.2V356.5
		l91.5,152.5h60.4V480h-15.6v-167H2114L2114,313.1z M2114,313.1v-28.9h-72.3v28.9h15.5v126.5l-93.5-155.4h-58.2v28.9h14.8v167h-14.8
		V509h71.9V480h-15.2V356.5l91.5,152.5h60.4V480h-15.6v-167H2114L2114,313.1z M2114,313.1v-28.9h-72.3v28.9h15.5v126.5l-93.5-155.4
		h-58.2v28.9h14.8v167h-14.8V509h71.9V480h-15.2V356.5l91.5,152.5h60.4V480h-15.6v-167H2114L2114,313.1z M2114,313.1v-28.9h-72.3
		v28.9h15.5v126.5l-93.5-155.4h-58.2v28.9h14.8v167h-14.8V509h71.9V480h-15.2V356.5l91.5,152.5h60.4V480h-15.6v-167H2114L2114,313.1
		z M2114,313.1v-28.9h-72.3v28.9h15.5v126.5l-93.5-155.4h-58.2v28.9h14.8v167h-14.8V509h71.9V480h-15.2V356.5l91.5,152.5h60.4V480
		h-15.6v-167H2114L2114,313.1z M2114,313.1v-28.9h-72.3v28.9h15.5v126.5l-93.5-155.4h-58.2v28.9h14.8v167h-14.8V509h71.9V480h-15.2
		V356.5l91.5,152.5h60.4V480h-15.6v-167H2114L2114,313.1z M2114,313.1v-28.9h-72.3v28.9h15.5v126.5l-93.5-155.4h-58.2v28.9h14.8v167
		h-14.8V509h71.9V480h-15.2V356.5l91.5,152.5h60.4V480h-15.6v-167H2114L2114,313.1z"/>
	<path class="st2" d="M2199.8,504.3h93.3l30.5-30.5v-72.9h-51v14.8h18.4v50.7l-18.3,18.3h-53l-18.3-18.3V326.7l18.3-18.3h53
		l18.3,18.3v21.8h32.5v-29.1l-30.5-30.5h-93.7l-30.1,30.1v154.8L2199.8,504.3L2199.8,504.3z M2297,513.6h-101.1l-36-36V315.1
		l35.6-35.6H2297l36,36v42.4h-51.3v-27.3l-12.8-12.8h-45.3l-12.8,12.8v132l12.8,12.8h45.3l12.8-12.8v-37.5h-18.4v-33.6h69.7v86.2
		L2297,513.6L2297,513.6z M2192.9,518.3h106.7l38.1-38.4v-92.8h-79.5v42.3h19.2v30.9l-10.7,10.7h-40.4l-11.1-11.1V333.2l10.7-10.7
		h40.8l10.7,10.7v29.1h60.4v-49.4l-38.1-38.1h-106.7l-37.7,37.7v168.1L2192.9,518.3L2192.9,518.3z M2303.5,527.7H2189l-43.2-43.2
		V308.6l43.2-43.2h114.5l43.6,43.6v62.7h-79.2v-34.6l-5.2-5.2h-33l-5.2,5.2v119l5.6,5.6h32.6l5.2-5.2v-17.6h-19.2v-61.1h98.3v106
		L2303.5,527.7L2303.5,527.7z"/>
	<path class="st1" d="M2328.3,353.2v-35.8l-33.2-33.2h-97.6l-33,32.9v158.7l33.3,33.2h97.2l33.2-33.2v-79.5h-60.4v24.2h18.4v44.1
		l-15.5,15.5h-49.2l-15.5-15.5V328.7l15.5-15.6h49.2l15.5,15.6v24.5H2328.3L2328.3,353.2z M2328.3,353.2v-35.8l-33.2-33.2h-97.6
		l-33,32.9v158.7l33.3,33.2h97.2l33.2-33.2v-79.5h-60.4v24.2h18.4v44.1l-15.5,15.5h-49.2l-15.5-15.5V328.7l15.5-15.6h49.2l15.5,15.6
		v24.5H2328.3L2328.3,353.2z M2328.3,353.2v-35.8l-33.2-33.2h-97.6l-33,32.9v158.7l33.3,33.2h97.2l33.2-33.2v-79.5h-60.4v24.2h18.4
		v44.1l-15.5,15.5h-49.2l-15.5-15.5V328.7l15.5-15.6h49.2l15.5,15.6v24.5H2328.3L2328.3,353.2z M2328.3,353.2v-35.8l-33.2-33.2
		h-97.6l-33,32.9v158.7l33.3,33.2h97.2l33.2-33.2v-79.5h-60.4v24.2h18.4v44.1l-15.5,15.5h-49.2l-15.5-15.5V328.7l15.5-15.6h49.2
		l15.5,15.6v24.5H2328.3L2328.3,353.2z M2328.3,353.2v-35.8l-33.2-33.2h-97.6l-33,32.9v158.7l33.3,33.2h97.2l33.2-33.2v-79.5h-60.4
		v24.2h18.4v44.1l-15.5,15.5h-49.2l-15.5-15.5V328.7l15.5-15.6h49.2l15.5,15.6v24.5H2328.3L2328.3,353.2z M2328.3,353.2v-35.8
		l-33.2-33.2h-97.6l-33,32.9v158.7l33.3,33.2h97.2l33.2-33.2v-79.5h-60.4v24.2h18.4v44.1l-15.5,15.5h-49.2l-15.5-15.5V328.7
		l15.5-15.6h49.2l15.5,15.6v24.5H2328.3L2328.3,353.2z M2328.3,353.2v-35.8l-33.2-33.2h-97.6l-33,32.9v158.7l33.3,33.2h97.2
		l33.2-33.2v-79.5h-60.4v24.2h18.4v44.1l-15.5,15.5h-49.2l-15.5-15.5V328.7l15.5-15.6h49.2l15.5,15.6v24.5H2328.3L2328.3,353.2z"/>
</g>
</svg>
